<svg width="22" height="22" viewBox="0 0 22 22" fill="none" xmlns="http://www.w3.org/2000/svg">
<path d="M13.659 19.0099L12.139 20.5299C11.519 21.1499 10.499 21.1499 9.879 20.5299L8.359 19.0099C8.099 18.7499 7.589 18.5399 7.229 18.5399H5.079C4.199 18.5399 3.479 17.8199 3.479 16.9399V14.7899C3.479 14.4299 3.269 13.9199 3.009 13.6599L1.489 12.1399C0.869002 11.5199 0.869002 10.4999 1.489 9.87991L3.009 8.35991C3.269 8.09991 3.479 7.58991 3.479 7.22991V5.07991C3.479 4.19991 4.199 3.47991 5.079 3.47991M8.34 2.98891L9.86 1.46891C10.48 0.848906 11.5 0.848906 12.12 1.46891L13.64 2.98891C13.9 3.24891 14.41 3.45891 14.77 3.45891H16.92C17.8 3.45891 18.52 4.17891 18.52 5.05891V7.20891C18.52 7.56891 18.73 8.07891 18.99 8.33891L20.51 9.85891C21.13 10.4789 21.13 11.4989 20.51 12.1189L18.99 13.6389C18.73 13.8989 18.52 14.4089 18.52 14.7689V16.9189C18.52 17.7989 17.8 18.5189 16.92 18.5189M8 13.9999L14 7.99991" stroke="#5FB567" stroke-width="1.5" stroke-linecap="round" stroke-linejoin="round"/>
</svg>
